# xmcd
#
# Track frame offsets: 
#        150
#        15887
#        27665
#        38861
#        57516
#        71907
#        84994
#        96393
#        109013
#        130072
#        140038
#        154582
#        168018
#        182809
#        198816
#        215655
#        238943
#        254734
#        264635
#        279874
#        291208
#        303267
#
# Disc length: 4200 seconds
#
# Revision: 0
# Processed by: cddbd v1.5.2PL0 Copyright (c) Steve Scherf et al.
# Submitted via: ExactAudioCopyFreeDBPlugin 1.0
#
DISCID=43106616
DTITLE=Various Artist - The Birth Of British Blues - Rock Island Line
DYEAR=2015
DGENRE=Blues
TTITLE0=Ken Coyler's Jazzmen - La Harpe Street Blues
TTITLE1=Chris Barber's Jazz Band - New Orleans Blues
TTITLE2=The Lonnie Donegan Skiffle Group - Rock Island Line
TTITLE3=The Saints Jazz Band - Boogie Woogie Stomp
TTITLE4=Bobby Mickelburgh's Bobcats - Livery Stable Blues
TTITLE5=Ken Coyler's Skiffle Group With Alexis Korner - KC Moan
TTITLE6=Ken Coyler's Skiffle Group With Alexis Korner - Casey Jones
TTITLE7=Ken Coyler's Skiffle Group With Alexis Korner - Midnight Speci
TTITLE7=al
TTITLE8=Ken Koyler's Jazzmen ft Diz Disley and Ackner Bilk - Far Away Bl
TTITLE8=ues
TTITLE9=Cy Laurie's Jazz Band - Royal Garden Blues
TTITLE10=Sid Phillips And His Band - Pete Kelly's Blues
TTITLE11=Chris Barber's Jazz Band - Wildcat Blues
TTITLE12=Chris Barber's Jazz Band ft Ottilie Patterson - Weeping Willo
TTITLE12=w Blues
TTITLE13=Chris Barber's Jazz Band - Tishomingo Blues
TTITLE14=Chris Barber's Jazz Band - Camp Meeting Blues
TTITLE15=Ottilie Patterson With Chris Barber's Jazz Band - New St. Lou
TTITLE15=is Blues
TTITLE16=The Lonnie Donegan Skiffle Group - New Burying Ground
TTITLE17=The Lonnie Donegan Skiffle Group - Worried Man Blues
TTITLE18=Ken Coyler's Skiffle Group With Alexis Korner - Take This Ham
TTITLE18=mer
TTITLE19=Ken Coyler's Skiffle Group With Alexis Korner - Down By The R
TTITLE19=iverside
TTITLE20=Ken Coyler's Skiffle Group With Alexis Korner - Go Down Old H
TTITLE20=annah
TTITLE21=Ken Coyler's Skiffle Group With Alexis Korner - Streamline Tr
TTITLE21=ain
EXTD=
EXTT0=
EXTT1=
EXTT2=
EXTT3=
EXTT4=
EXTT5=
EXTT6=
EXTT7=
EXTT8=
EXTT9=
EXTT10=
EXTT11=
EXTT12=
EXTT13=
EXTT14=
EXTT15=
EXTT16=
EXTT17=
EXTT18=
EXTT19=
EXTT20=
EXTT21=
PLAYORDER=
